<svg xmlns="http://www.w3.org/2000/svg" width="1200" height="800" viewBox="0 0 1200 800" fill="none">
  <rect width="1200" height="800" rx="44" fill="#ECE7DE"/>
  <rect x="92" y="92" width="1016" height="616" rx="40" fill="#F8F6F1"/>
  <path d="M164 540C262 488 323 401 403 401C489 401 514 511 599 511C691 511 725 274 839 274C916 274 973 360 1036 420" stroke="#0F172A" stroke-width="28" stroke-linecap="round"/>
  <rect x="158" y="172" width="144" height="292" rx="26" fill="#D7E5E1"/>
  <rect x="340" y="224" width="144" height="240" rx="26" fill="#BFD0DD"/>
  <rect x="522" y="280" width="144" height="184" rx="26" fill="#E1C9B3"/>
  <circle cx="836" cy="273" r="34" fill="#0F766E"/>
  <rect x="156" y="566" width="414" height="30" rx="15" fill="#A2AAB4"/>
  <rect x="156" y="614" width="296" height="22" rx="11" fill="#C4C8CF"/>
</svg>
